<svg xmlns="http://www.w3.org/2000/svg" width="3160" height="2160" viewBox="0 0 3160 2160"><rect width="100%" height="100%" fill="#DDDDDD"/><path fill="#999999" d="m761.685 881.785 7.21 34.34q13.14-13.14 27.77-24.38 14.63-11.24 30.95-19.08 16.32-7.84 34.98-12.3 18.66-4.45 40.7-4.45 35.62 0 63.18 12.09 27.56 12.08 46 33.92 18.45 21.83 27.99 52.15 9.54 30.31 9.54 66.78v276.87h-104.73v-276.87q0-39.86-18.23-61.69-18.23-21.84-55.55-21.84-27.13 0-50.88 12.3-23.74 12.29-44.94 33.49v314.61h-104.73v-435.02h64.03q20.35 0 26.71 19.08Zm580.03-25.87q48.34 0 87.98 15.69t67.84 44.52q28.2 28.83 43.46 70.38 15.26 41.56 15.26 92.86 0 51.73-15.26 93.28-15.26 41.55-43.46 70.81-28.2 29.25-67.84 44.94-39.64 15.69-87.98 15.69-48.76 0-88.62-15.69-39.85-15.69-68.05-44.94-28.19-29.26-43.67-70.81t-15.48-93.28q0-51.3 15.48-92.86 15.48-41.55 43.67-70.38 28.2-28.83 68.05-44.52 39.86-15.69 88.62-15.69Zm0 367.61q54.27 0 80.35-36.46 26.07-36.47 26.07-106.85 0-70.39-26.07-107.27-26.08-36.89-80.35-36.89-55.12 0-81.62 37.1-26.5 37.1-26.5 107.06 0 69.96 26.5 106.63 26.5 36.68 81.62 36.68Zm385.42-341.74 7.2 34.34q13.15-13.14 27.78-24.38 14.62-11.24 30.95-19.08 16.32-7.84 34.98-12.3 18.65-4.45 40.7-4.45 35.62 0 63.18 12.09 27.56 12.08 46 33.92 18.45 21.83 27.99 52.15 9.54 30.31 9.54 66.78v276.87h-104.73v-276.87q0-39.86-18.23-61.69-18.24-21.84-55.55-21.84-27.13 0-50.88 12.3-23.74 12.29-44.94 33.49v314.61h-104.73v-435.02h64.02q20.36 0 26.72 19.08Zm470.21 148.4h197.59q0-20.36-5.73-38.38-5.72-18.02-17.17-31.58-11.45-13.57-29.04-21.42-17.6-7.84-40.92-7.84-45.37 0-71.44 25.86-26.08 25.87-33.29 73.36Zm267.12 63.17h-269.24q2.55 33.5 11.87 57.88 9.33 24.38 24.6 40.28 15.26 15.9 36.25 23.74 20.99 7.85 46.43 7.85t43.88-5.94q18.44-5.94 32.22-13.14 13.78-7.21 24.17-13.15 10.39-5.93 20.14-5.93 13.15 0 19.51 9.75l30.1 38.16q-17.38 20.35-39.01 34.13-21.62 13.78-45.15 22.05-23.54 8.27-47.92 11.66-24.38 3.39-47.27 3.39-45.37 0-84.38-15.05t-67.84-44.52q-28.83-29.47-45.37-72.93-16.53-43.46-16.53-100.7 0-44.52 14.41-83.74 14.42-39.22 41.34-68.26 26.93-29.05 65.72-46.01 38.8-16.96 87.56-16.96 41.13 0 75.9 13.15 34.76 13.14 59.78 38.37 25.02 25.23 39.22 61.9 14.2 36.68 14.2 83.74 0 23.75-5.08 32.01-5.09 8.27-19.51 8.27Z"/></svg>