<svg xmlns="http://www.w3.org/2000/svg" width="500" height="750" viewBox="0 0 500 750"><rect width="100%" height="100%" fill="#DDDDDD"/><path fill="#999999" d="m119.73 343.445 1.14 5.47q2.1-2.09 4.42-3.88 2.33-1.79 4.93-3.04 2.6-1.25 5.57-1.96t6.48-.71q5.67 0 10.06 1.93 4.39 1.92 7.32 5.4 2.94 3.47 4.46 8.3t1.52 10.63v44.08h-16.68v-44.08q0-6.34-2.9-9.82-2.9-3.48-8.84-3.48-4.32 0-8.1 1.96-3.78 1.96-7.16 5.33v50.09h-16.67v-69.26h10.19q3.24 0 4.26 3.04Zm92.34-4.12q7.69 0 14 2.5t10.8 7.09q4.49 4.59 6.92 11.2 2.43 6.62 2.43 14.79 0 8.23-2.43 14.85-2.43 6.61-6.92 11.27-4.49 4.66-10.8 7.15-6.31 2.5-14 2.5-7.77 0-14.11-2.5-6.35-2.49-10.84-7.15-4.48-4.66-6.95-11.27-2.46-6.62-2.46-14.85 0-8.17 2.46-14.79 2.47-6.61 6.95-11.2 4.49-4.59 10.84-7.09 6.34-2.5 14.11-2.5Zm0 58.53q8.64 0 12.79-5.81 4.15-5.8 4.15-17.01 0-11.2-4.15-17.08-4.15-5.87-12.79-5.87-8.78 0-13 5.91-4.22 5.9-4.22 17.04 0 11.14 4.22 16.98t13 5.84Zm61.35-54.41 1.15 5.47q2.09-2.09 4.42-3.88t4.93-3.04q2.6-1.25 5.57-1.96t6.48-.71q5.67 0 10.06 1.93 4.38 1.92 7.32 5.4 2.94 3.47 4.46 8.3 1.51 4.83 1.51 10.63v44.08h-16.67v-44.08q0-6.34-2.9-9.82-2.9-3.48-8.84-3.48-4.32 0-8.1 1.96-3.78 1.96-7.16 5.33v50.09h-16.67v-69.26h10.19q3.24 0 4.25 3.04Zm74.86 23.63h31.46q0-3.24-.92-6.11-.91-2.87-2.73-5.03-1.82-2.16-4.62-3.41t-6.52-1.25q-7.22 0-11.37 4.12-4.15 4.12-5.3 11.68Zm42.53 10.05h-42.87q.41 5.34 1.89 9.22 1.49 3.88 3.92 6.41 2.43 2.53 5.77 3.78 3.34 1.25 7.39 1.25t6.99-.95q2.93-.94 5.13-2.09 2.19-1.15 3.85-2.09 1.65-.95 3.2-.95 2.09 0 3.11 1.56l4.79 6.07q-2.77 3.24-6.21 5.44-3.44 2.19-7.19 3.51-3.75 1.31-7.63 1.85t-7.52.54q-7.23 0-13.44-2.39-6.21-2.4-10.8-7.09-4.59-4.69-7.22-11.61-2.63-6.92-2.63-16.03 0-7.09 2.29-13.33 2.3-6.25 6.58-10.87 4.29-4.63 10.47-7.33 6.17-2.7 13.94-2.7 6.54 0 12.08 2.1 5.53 2.09 9.52 6.11 3.98 4.01 6.24 9.85 2.26 5.84 2.26 13.33 0 3.78-.81 5.1-.81 1.31-3.1 1.31Z"/></svg>